<?xml version="1.0" encoding="UTF-8" standalone="no"?><!DOCTYPE svg PUBLIC "-//W3C//DTD SVG 1.1//EN" "http://www.w3.org/Graphics/SVG/1.1/DTD/svg11.dtd"><svg width="100%" height="100%" viewBox="0 0 128 128" version="1.1" xmlns="http://www.w3.org/2000/svg" xmlns:xlink="http://www.w3.org/1999/xlink" xml:space="preserve" xmlns:serif="http://www.serif.com/" style="fill-rule:evenodd;clip-rule:evenodd;stroke-linejoin:round;stroke-miterlimit:2;"><g transform="matrix(0.0611248,0,0,0.0611248,9.23214,14.0102)"><path d="M1792,710L1792,1504C1792,1548 1776.33,1585.67 1745,1617C1713.67,1648.33 1676,1664 1632,1664L160,1664C116,1664 78.333,1648.33 47,1617C15.667,1585.67 0,1548 0,1504L0,710C29.333,742.667 63,771.667 101,797C342.333,961 508,1076 598,1142C636,1170 666.833,1191.83 690.5,1207.5C714.167,1223.17 745.667,1239.17 785,1255.5C824.333,1271.83 861,1280 895,1280L897,1280C931,1280 967.667,1271.83 1007,1255.5C1046.33,1239.17 1077.83,1223.17 1101.5,1207.5C1125.17,1191.83 1156,1170 1194,1142C1307.33,1060 1473.33,945 1692,797C1730,771 1763.33,742 1792,710ZM1792,416C1792,468.667 1775.67,519 1743,567C1710.33,615 1669.67,656 1621,690C1370.33,864 1214.33,972.333 1153,1015C1146.33,1019.67 1132.17,1029.83 1110.5,1045.5C1088.83,1061.17 1070.83,1073.83 1056.5,1083.5C1042.17,1093.17 1024.83,1104 1004.5,1116C984.167,1128 965,1137 947,1143C929,1149 912.333,1152 897,1152L895,1152C879.667,1152 863,1149 845,1143C827,1137 807.833,1128 787.5,1116C767.167,1104 749.833,1093.17 735.5,1083.5C721.167,1073.83 703.167,1061.17 681.5,1045.5C659.833,1029.83 645.667,1019.67 639,1015C578.333,972.333 491,911.5 377,832.5C263,753.5 194.667,706 172,690C130.667,662 91.667,623.5 55,574.5C18.333,525.5 0,480 0,438C0,386 13.833,342.667 41.5,308C69.167,273.333 108.667,256 160,256L1632,256C1675.33,256 1712.83,271.667 1744.5,303C1776.17,334.333 1792,372 1792,416Z" style="fill:#fff;fill-rule:nonzero;"/></g></svg>