<svg xmlns="http://www.w3.org/2000/svg" viewBox="0 0 64 64">
  <defs>
    <linearGradient id="g" x1="0%" y1="0%" x2="100%" y2="100%">
      <stop offset="0%" stop-color="#22d3ee"/>
      <stop offset="100%" stop-color="#a855f7"/>
    </linearGradient>
  </defs>
  <rect width="64" height="64" rx="16" fill="#030712"/>
  <g transform="matrix(0.04780876494023904,0,0,-0.04780876494023904,17.418326693227094,47.13147410358566)">
    <path d="M61 -33Q50 -27 45.5 -22Q41 -17 41 -9Q41 1 49.5 19.5Q58 38 79 78Q85 91 102 124Q145 206 145 245Q144 247 144 251Q144 261 160 269Q163 272 181.5 286Q200 300 211 318Q224 348 244 384.5Q264 421 313 504Q361 592 415 663Q425 677 437.5 685Q450 693 459 693Q490 693 522.5 669Q555 645 565 621Q569 614 569 591Q569 560 562 486Q560 473 558 445Q555 400 549 349Q538 237 533 174Q528 111 528 56Q528 28 529 15L529 8L528 -15Q522 -21 504 -21Q484 -21 464 -14.5Q444 -8 442 1Q441 2 439 3Q437 4 437 12L438 34L441 90L446 243L433 242Q413 242 348.5 234Q284 226 267 221Q258 221 245 209Q232 197 222 178Q219 168 208 149.5Q197 131 197 128Q191 124 186.5 117.5Q182 111 181 109Q181 98 161.5 52.5Q142 7 123 -22L96 -60ZM300 311Q307 312 328 315.5Q349 319 365 320Q413 332 431 332Q441 332 445 330Q448 326 451.5 324.5Q455 323 456 323Q458 331 472 432Q486 533 486 556Q486 572 485 583.5Q484 595 483 598Q474 598 442 550.5Q410 503 380 443Q357 402 348 402Q341 395 318 355Q295 315 300 311Z" fill="url(#g)"/>
  </g>
</svg>
